<?xml version="1.0" encoding="utf-8"?>
<!-- Generator: Adobe Illustrator 23.0.3, SVG Export Plug-In . SVG Version: 6.00 Build 0)  -->
<svg version="1.1" id="Layer_1" xmlns="http://www.w3.org/2000/svg" xmlns:xlink="http://www.w3.org/1999/xlink" x="0px" y="0px"
	 viewBox="0 0 131.8 53.1" style="enable-background:new 0 0 131.8 53.1;" xml:space="preserve">
<style type="text/css">
	.st0{fill:url(#Path_52_1_);}
	.st1{fill:url(#Path_53_1_);}
	.st2{fill:url(#Path_54_1_);}
	.st3{fill:url(#Path_55_1_);}
	.st4{fill:url(#Path_56_1_);}
	.st5{fill:url(#Path_57_1_);}
	.st6{fill:url(#Path_58_1_);}
	.st7{fill:url(#Path_59_1_);}
	.st8{fill:url(#Path_60_1_);}
	.st9{fill:url(#Path_61_1_);}
	.st10{fill:url(#Path_62_1_);}
	.st11{fill:url(#Path_63_1_);}
	.st12{fill:url(#Path_64_1_);}
	.st13{fill:url(#Path_65_1_);}
	.st14{enable-background:new    ;}
	.st15{fill:#58595B;}
</style>
<g id="Group_42" transform="translate(-1359 280)">
	<g id="Group_41" transform="translate(1359 -280)">
		
			<radialGradient id="Path_52_1_" cx="-14.1005" cy="64.016" r="30.574" gradientTransform="matrix(1.446 0 0 -1.446 130.28 253.829)" gradientUnits="userSpaceOnUse">
			<stop  offset="0" style="stop-color:#009697"/>
			<stop  offset="1" style="stop-color:#00AB4E"/>
		</radialGradient>
		<path id="Path_52" class="st0" d="M8.4,45.9l20.3-30.7c0.1-0.4,0.1-0.7,0.3-1.1v0l-22,30.3C7.4,44.9,7.9,45.4,8.4,45.9z"/>
		
			<radialGradient id="Path_53_1_" cx="21.2269" cy="40.24" r="41.567" gradientTransform="matrix(1.064 0 0 -1.064 18.948 74.919)" gradientUnits="userSpaceOnUse">
			<stop  offset="0" style="stop-color:#009697"/>
			<stop  offset="1" style="stop-color:#00AB4E"/>
		</radialGradient>
		<path id="Path_53" class="st1" d="M2.9,38.7c0.3,0.6,0.7,1.3,1.1,1.8l25.3-27.5c0.2-0.5,0.5-0.9,0.8-1.4L2.9,38.7z"/>
		
			<radialGradient id="Path_54_1_" cx="85.5389" cy="-0.2877" r="46.921" gradientTransform="matrix(0.943 0 0 -0.943 -102.653 -4.057)" gradientUnits="userSpaceOnUse">
			<stop  offset="0" style="stop-color:#009697"/>
			<stop  offset="1" style="stop-color:#00AB4E"/>
		</radialGradient>
		<path id="Path_54" class="st2" d="M50.7,15.4c-0.3-0.6-0.6-1.2-0.9-1.7l-5.2,5.1c-0.1,0.3-0.2,0.6-0.4,1L50.7,15.4z"/>
		
			<radialGradient id="Path_55_1_" cx="149.8076" cy="-397.3082" r="94.499" gradientTransform="matrix(0.468 0 0 -0.468 -515.519 -454.669)" gradientUnits="userSpaceOnUse">
			<stop  offset="0" style="stop-color:#009697"/>
			<stop  offset="1" style="stop-color:#00AB4E"/>
		</radialGradient>
		<path id="Path_55" class="st3" d="M41.5,23L53,28.1c0-0.7,0-1.6,0-1.7l-11.2-3.7C41.8,22.8,41.7,22.9,41.5,23z"/>
		
			<radialGradient id="Path_56_1_" cx="1393.3333" cy="-2195.2686" r="240.881" gradientTransform="matrix(0.184 0 0 -0.184 -833.913 -767.095)" gradientUnits="userSpaceOnUse">
			<stop  offset="0" style="stop-color:#009697"/>
			<stop  offset="1" style="stop-color:#00AB4E"/>
		</radialGradient>
		<path id="Path_56" class="st4" d="M52.2,19.7L43.5,21c-0.1,0.2-0.2,0.3-0.4,0.5l9.4,0C52.5,20.9,52.4,20.3,52.2,19.7z"/>
		
			<radialGradient id="Path_57_1_" cx="195.31" cy="-177.634" r="61.161" gradientTransform="matrix(0.723 0 0 -0.723 -104.134 -114.023)" gradientUnits="userSpaceOnUse">
			<stop  offset="0" style="stop-color:#009697"/>
			<stop  offset="1" style="stop-color:#00AB4E"/>
		</radialGradient>
		<path id="Path_57" class="st5" d="M47.1,9.7c-0.4-0.6-0.9-1.1-1.4-1.6L45,13.8L42,5c-0.7-0.5-1.4-1-2.1-1.4l2.6,5.8l-6.7-7.8
			C34.9,1.3,34,1,33,0.8l6.7,7.1L28.7,0.1C27.8,0,26.9,0,25.9,0l11.6,7.4l-15.8-7c-0.8,0.1-1.7,0.3-2.5,0.6l16.6,6.5L15,2.6
			c-0.8,0.4-1.5,0.8-2.2,1.2l21.8,3.9L9.1,6.5C8.4,7.1,7.8,7.7,7.2,8.3l26.2-0.2l-29,3.6c-0.5,0.7-0.9,1.4-1.3,2.1l29.2-5.2
			L1.3,18.4c-0.2,0.7-0.4,1.4-0.6,2.1L31.4,9.6L0,25.1c0,0.6,0,1.5,0,2.2l30.5-16.8L0.6,32c0.1,0.7,0.3,1.4,0.5,2l29.3-22.8
			c2.9-3.5,8-4,11.5-1.2c2.3,1.9,3.4,4.8,2.9,7.7L47.1,9.7z"/>
		
			<radialGradient id="Path_58_1_" cx="113.8091" cy="-47.2817" r="21.771" gradientTransform="matrix(2.031 0 0 -2.031 106.4929 315.3069)" gradientUnits="userSpaceOnUse">
			<stop  offset="0" style="stop-color:#009697"/>
			<stop  offset="1" style="stop-color:#00AB4E"/>
		</radialGradient>
		<path id="Path_58" class="st6" d="M28.6,17.3c0-0.3-0.1-0.6-0.1-0.9L12.2,48.9c0.6,0.4,1.1,0.7,1.7,1L28.6,17.3z"/>
		
			<radialGradient id="Path_59_1_" cx="267.1266" cy="-28.5102" r="32.898" gradientTransform="matrix(1.344 0 0 -1.344 -14.775 173.443)" gradientUnits="userSpaceOnUse">
			<stop  offset="0" style="stop-color:#009697"/>
			<stop  offset="1" style="stop-color:#00AB4E"/>
		</radialGradient>
		<path id="Path_59" class="st7" d="M37.9,24.5c-0.1,0-0.3,0-0.4,0L48.8,41c0.4-0.6,0.7-1.1,1-1.7L37.9,24.5z"/>
		
			<radialGradient id="Path_60_1_" cx="59.7613" cy="-21.6961" r="51.074" gradientTransform="matrix(0.866 0 0 -0.866 -138.086 -79.226)" gradientUnits="userSpaceOnUse">
			<stop  offset="0" style="stop-color:#009697"/>
			<stop  offset="1" style="stop-color:#00AB4E"/>
		</radialGradient>
		<path id="Path_60" class="st8" d="M40,23.9c-0.1,0-0.3,0.1-0.4,0.1l12.1,10.8c0.2-0.6,0.4-1.2,0.5-1.8L40,23.9z"/>
		
			<radialGradient id="Path_61_1_" cx="665.6679" cy="-230.2943" r="21.81" gradientTransform="matrix(2.028 0 0 -2.028 -431.7899 135.6441)" gradientUnits="userSpaceOnUse">
			<stop  offset="0" style="stop-color:#009697"/>
			<stop  offset="1" style="stop-color:#00AB4E"/>
		</radialGradient>
		<path id="Path_61" class="st9" d="M46,44.6L35.8,24.5c-0.2,0-0.3,0-0.5-0.1L44.6,46L46,44.6z"/>
		
			<radialGradient id="Path_62_1_" cx="3041.4697" cy="-1892.28" r="6.765" gradientTransform="matrix(6.537 0 0 -6.537 -16075.4941 -9661.1514)" gradientUnits="userSpaceOnUse">
			<stop  offset="0" style="stop-color:#009697"/>
			<stop  offset="1" style="stop-color:#00AB4E"/>
		</radialGradient>
		<path id="Path_62" class="st10" d="M27.4,53.1l2.9-31.7c-0.1-0.2-0.3-0.4-0.4-0.6L25.4,53C26,53.1,27,53.1,27.4,53.1z"/>
		
			<radialGradient id="Path_63_1_" cx="1708.725" cy="-860.1753" r="12.326" gradientTransform="matrix(3.588 0 0 -3.588 -3922.4429 -1631.2881)" gradientUnits="userSpaceOnUse">
			<stop  offset="0" style="stop-color:#009697"/>
			<stop  offset="1" style="stop-color:#00AB4E"/>
		</radialGradient>
		<path id="Path_63" class="st11" d="M33.7,23.9c-0.2-0.1-0.3-0.1-0.5-0.2l5.5,26.3c0.6-0.3,1.2-0.7,1.8-1L33.7,23.9z"/>
		
			<radialGradient id="Path_64_1_" cx="643.0564" cy="-429.3748" r="14.096" gradientTransform="matrix(3.137 0 0 -3.137 -1010.5729 -395.8269)" gradientUnits="userSpaceOnUse">
			<stop  offset="0" style="stop-color:#009697"/>
			<stop  offset="1" style="stop-color:#00AB4E"/>
		</radialGradient>
		<path id="Path_64" class="st12" d="M29.2,19.4c-0.1-0.2-0.2-0.5-0.3-0.7L18.5,51.8c0.7,0.2,1.3,0.4,2,0.6L29.2,19.4z"/>
		
			<radialGradient id="Path_65_1_" cx="7317.8652" cy="-3746.6536" r="4.357" gradientTransform="matrix(10.15 0 0 -10.15 -65518.707 -33189.7812)" gradientUnits="userSpaceOnUse">
			<stop  offset="0" style="stop-color:#009697"/>
			<stop  offset="1" style="stop-color:#00AB4E"/>
		</radialGradient>
		<path id="Path_65" class="st13" d="M31.8,22.9c-0.1-0.1-0.3-0.3-0.4-0.4l0.9,29.9c0.7-0.1,1.4-0.3,2.1-0.6L31.8,22.9z"/>
	</g>
	<g class="st14">
		<path class="st15" d="M1423.1-264.1h11.8v2.1h-9.5v6h7.1v2.1h-7.1v7h10.1v2.1h-12.4V-264.1z"/>
		<path class="st15" d="M1437.6-249.5l1.9-0.9c1,2.6,2.9,3.8,5.5,3.8c2.7,0,4.5-1.1,4.5-3.2c0-1.9-1-2.8-4.8-4
			c-4-1.2-6.4-2.3-6.4-5.6c0-2.9,2.5-5.1,6.2-5.1s5.8,1.9,6.8,4.3l-1.8,1c-1-2.3-2.7-3.2-5-3.2c-2.4,0-3.9,1.2-3.9,2.8
			c0,2.1,1.3,2.7,5.1,3.9c3.9,1.2,6.2,2.5,6.2,5.8c0,3.2-2.8,5.4-6.9,5.4C1441.2-244.5,1438.6-246.5,1437.6-249.5z"/>
		<path class="st15" d="M1455.6-264.1h5.1c6.2,0,9.7,3.1,9.7,9.6c0,6.5-3.6,9.7-9.7,9.7h-5.1V-264.1z M1461-246.9
			c4.7,0,7.1-2.3,7.1-7.6c0-5.2-2.5-7.5-7.2-7.5h-3v15.1H1461z"/>
		<path class="st15" d="M1473.8-251.5v-12.6h2.3v12.3c0,3.1,1.5,5.3,4.9,5.3c3.4,0,4.8-2.1,4.8-5.2v-12.3h2.3v12.5c0,4-2.4,7-7.1,7
			C1476-244.5,1473.8-247.6,1473.8-251.5z"/>
	</g>
</g>
</svg>
